<?xml version="1.0" encoding="UTF-8"?>
<svg xmlns="http://www.w3.org/2000/svg" viewBox="0 0 180 182" width="180" height="182">
<path d="M96.5 29.67C95.06 31.11 95.67 33.89 95.67 35.83C95.67 39.73 94.47 53.06 96.5 55.67C99.14 56.65 102.64 57.04 105.44 57.73C110.1 58.88 114.81 63.07 118.5 66C130.28 75.36 134.54 92.95 131.6 107.1C130.9 110.52 128.94 113.81 127.4 116.9C125.3 121.1 122.56 125.7 118.83 128.67C114.59 132.03 109.54 136.14 104.1 137.27C101.5 137.81 98.29 138.42 95.83 139.33C94.44 146.28 95.67 154.71 95.67 161.83C95.67 166.11 93.71 169.79 88.84 168.99C85.23 168.4 85.33 163.83 85.33 161.17C85.33 155.94 85.33 150.72 85.33 145.5C85.33 143.42 85.84 140.72 84.5 139C79.9 139 74.27 136.78 70.45 134.39C67.57 132.58 64.59 131.14 62.01 128.82C50.78 118.7 46.13 102.57 49.06 87.9C51.78 74.31 62.61 63.9 74.56 58.06C77.65 56.56 81.22 56.32 84.5 55.67C85.61 53.44 85.33 50.94 85.33 48.5C85.33 43.46 86.64 33.28 84.5 29C82.38 31.62 76.4 37.49 73.44 38.94C71.42 39.92 67.64 38.46 67.06 36.1C65.66 30.42 78.61 20.22 82.67 16.17C84.42 14.41 86.6 11.41 89.18 11.01C92.83 10.44 94.84 13.01 97.17 15.33C101.58 19.75 105.91 24.39 110.4 28.44C112.33 30.18 114.63 32.55 113.94 35.44C113.58 36.93 112.62 37.86 111.33 38.5C105.22 41.56 101.25 32.04 96.5 29.67ZM97 28.18C96.11 28.18 95.23 28.18 94.34 28.18C94.45 37.01 94.55 45.84 94.66 54.67C94.76 46.28 94.87 37.89 94.98 29.5C95.65 29.06 96.33 28.62 97 28.18ZM84.5 66.33C78.48 66.33 72.4 70.35 68.33 74.5C53.67 89.47 55.69 111.73 72.66 123.84C75.81 126.1 80.48 128.62 84.5 128.67C86.66 125.9 85.33 118.93 85.33 115.5C85.33 103.83 85.33 92.17 85.33 80.5C85.33 77.39 86.27 68.51 84.5 66.33ZM94.67 66.33C94.67 87 94.67 107.67 94.67 128.33C94.67 107.67 94.67 87 94.67 66.33ZM96.5 128.67C100.2 128.63 104.64 126.12 107.68 124.18C122.46 114.7 126.37 94.24 116.82 79.68C113.68 74.88 108.21 69.33 102.56 67.94C100.5 67.43 98.07 65.23 96 66.83C94.42 70.15 95.67 76.77 95.67 80.5C95.67 91.72 95.67 102.94 95.67 114.17C95.67 117.32 94.72 126.47 96.5 128.67ZM94.65 139.33C94.65 147.22 94.65 155.11 94.65 163C94.65 155.11 94.65 147.22 94.65 139.33Z" fill="#ffffff" fill-rule="evenodd" stroke="#ffffff" stroke-width="0.25" stroke-linejoin="round"/>
<path d="M1.33 178.03C1.72 178.31 2.11 178.58 2.5 178.85C43.94 178.85 85.39 178.85 126.83 178.85C138.83 178.85 150.83 178.85 162.83 178.85C168.17 178.85 175.21 177.8 179.94 179.66C179.94 180.41 179.93 181.16 179.92 181.92C119.97 181.92 60.03 181.92 0.08 181.92C0.07 181.33 0.06 180.73 0.06 180.14C0.2 180.24 0.35 180.33 0.5 180.43C0.78 180.12 1.06 179.81 1.33 179.5C1.31 179.34 1.3 179.17 1.28 179.01C1.26 178.89 1.24 178.78 1.21 178.67C1.25 178.46 1.29 178.24 1.33 178.03Z" fill="#554d5d" fill-rule="evenodd" stroke="#554d5d" stroke-width="0.25" stroke-linejoin="round"/>
<path d="M2 0.06C61.11 0.06 120.22 0.06 179.33 0.06C179.39 0.37 179.44 0.69 179.5 1C179.65 1 179.8 1 179.94 1C179.94 1.38 179.94 1.76 179.94 2.14C178.85 2.61 179.28 10.21 179.28 11.83C179.28 22.28 179.28 32.72 179.28 43.17C179.28 76.39 179.28 109.61 179.28 142.83C179.28 151.39 179.28 159.94 179.28 168.5C179.28 170.73 180.17 176.07 178.85 177.67C178.84 119.11 178.83 60.56 178.81 2C178.77 1.77 178.73 1.54 178.69 1.31C119.9 1.31 61.11 1.31 2.32 1.31C2.23 1.47 2.14 1.63 2.06 1.79C2.03 1.86 2 1.93 1.97 2C1.88 2.12 1.79 2.25 1.71 2.37C1.56 2.52 1.42 2.66 1.28 2.8C1.17 2.48 1.06 2.16 0.95 1.83C1.06 1.76 1.16 1.69 1.27 1.61C1.4 1.57 1.53 1.54 1.67 1.5C1.78 1.02 1.89 0.54 2 0.06ZM97 28.18C96.33 28.62 95.65 29.06 94.98 29.5C94.87 37.89 94.76 46.28 94.66 54.67C94.55 45.84 94.45 37.01 94.34 28.18C95.23 28.18 96.11 28.18 97 28.18ZM94.67 66.33C94.67 87 94.67 107.67 94.67 128.33C94.67 107.67 94.67 87 94.67 66.33ZM94.65 139.33C94.65 147.22 94.65 155.11 94.65 163C94.65 155.11 94.65 147.22 94.65 139.33Z" fill="#a9a2a2" fill-rule="evenodd" stroke="#a9a2a2" stroke-width="0.25" stroke-linejoin="round"/>
<path d="M0.08 0.08C0.47 0.07 0.85 0.06 1.24 0.06C1.25 0.57 1.26 1.09 1.27 1.61C1.16 1.69 1.06 1.76 0.95 1.83C1.06 2.16 1.17 2.48 1.28 2.8C1.38 2.98 1.48 3.16 1.58 3.33C1.5 61.57 1.42 119.8 1.33 178.03C1.29 178.24 1.25 178.46 1.21 178.67C1.24 178.78 1.26 178.89 1.28 179.01C1.3 179.17 1.31 179.34 1.33 179.5C1.06 179.81 0.78 180.12 0.5 180.43C0.35 180.33 0.2 180.24 0.06 180.14C0.06 120.12 0.07 60.1 0.08 0.08Z" fill="#f1e3c1" fill-rule="evenodd" stroke="#f1e3c1" stroke-width="0.25" stroke-linejoin="round"/>
<path d="M1.24 0.06C1.49 0.06 1.75 0.06 2 0.06C1.89 0.54 1.78 1.02 1.67 1.5C1.53 1.54 1.4 1.57 1.27 1.61C1.26 1.09 1.25 0.57 1.24 0.06ZM179.33 0.06C179.53 0.06 179.72 0.07 179.92 0.08C179.93 0.39 179.94 0.69 179.94 1C179.8 1 179.65 1 179.5 1C179.44 0.69 179.39 0.37 179.33 0.06ZM178.69 1.31C119.9 1.31 61.11 1.31 2.32 1.31C61.11 1.31 119.9 1.31 178.69 1.31ZM2.32 1.31C2.23 1.47 2.14 1.63 2.06 1.79C2.14 1.63 2.23 1.47 2.32 1.31ZM178.69 1.31C178.73 1.54 178.77 1.77 178.81 2C178.77 1.77 178.73 1.54 178.69 1.31ZM1.97 2C1.88 2.12 1.79 2.25 1.71 2.37C1.79 2.25 1.88 2.12 1.97 2ZM179.94 2.14C179.94 60.87 179.94 119.6 179.94 178.33C179.63 178.28 179.31 178.22 179 178.17C178.95 178 178.9 177.83 178.85 177.67C180.17 176.07 179.28 170.73 179.28 168.5C179.28 159.94 179.28 151.39 179.28 142.83C179.28 109.61 179.28 76.39 179.28 43.17C179.28 32.72 179.28 22.28 179.28 11.83C179.28 10.21 178.85 2.61 179.94 2.14ZM1.71 2.37C1.66 2.69 1.62 3.01 1.58 3.33C1.48 3.16 1.38 2.98 1.28 2.8C1.42 2.66 1.56 2.52 1.71 2.37ZM1.21 178.67C1.24 178.78 1.26 178.89 1.28 179.01C1.26 178.89 1.24 178.78 1.21 178.67Z" fill="#887e7d" fill-rule="evenodd" stroke="#887e7d" stroke-width="0.25" stroke-linejoin="round"/>
</svg>